<svg xmlns="http://www.w3.org/2000/svg" viewBox="-81.73 -145.35 467.41 210.06" fill="#0B0E12">
  <path d="M-9.68 14.52H-3.23Q11.45 14.52 18.31 8.55Q25.16 2.58 25.00 -11.29Q25.00 -15.00 24.52 -19.11Q24.03 -23.23 23.23 -27.90L19.84 -49.35L37.42 -52.10L39.84 -37.10Q40.48 -33.55 40.89 -30.32Q41.29 -27.10 41.61 -24.19H56.45V-4.84L51.61 0.00H41.61Q38.87 17.90 27.50 28.31Q16.13 38.71 -3.06 38.71H-9.68ZM51.61 -19.35 56.45 -24.19H73.71V-4.84L68.87 0.00H51.61ZM68.87 -19.35 73.71 -24.19H90.97V-4.84L86.13 0.00H68.87ZM86.13 -19.35 90.97 -24.19H108.23V-4.84L103.39 0.00H86.13ZM103.39 -19.35 108.23 -24.19H125.48V-4.84L120.65 0.00H103.39ZM238.55 0.00Q232.90 0.00 227.82 -1.37Q222.74 -2.74 218.23 -6.45Q207.90 0.00 188.87 0.00H120.65V-19.35L125.48 -24.19H132.74L136.77 -31.13V-119.35H156.13V-78.06L154.19 -59.19L155.48 -58.55Q163.71 -67.10 173.06 -70.89Q182.42 -74.68 193.71 -74.68Q212.74 -74.68 222.26 -64.27Q231.77 -53.87 231.77 -35.32Q231.77 -29.19 230.65 -24.68Q234.68 -24.19 238.55 -24.19H243.39V-4.84ZM188.87 -24.19Q196.61 -24.19 201.69 -24.76Q206.77 -25.32 209.92 -26.69Q213.06 -28.06 214.35 -30.48Q215.65 -32.90 215.65 -36.77Q215.65 -43.71 211.13 -47.10Q206.61 -50.48 196.13 -50.48H191.29Q184.03 -50.48 178.55 -49.92Q173.06 -49.35 168.87 -47.74Q164.68 -46.13 161.29 -43.23Q157.90 -40.32 154.84 -35.65L147.90 -25.16L148.39 -24.19ZM238.55 -19.35 243.39 -24.19H243.55Q251.29 -24.19 255.08 -26.05Q258.87 -27.90 261.13 -32.58L267.42 -45.65L283.39 -37.90L277.74 -26.13Q281.61 -24.35 285.65 -23.15Q289.68 -21.94 293.87 -21.94Q300.81 -21.94 303.87 -24.92Q306.94 -27.90 306.94 -35.48V-45.65H324.68V-35.48Q324.68 -28.71 327.02 -25.65Q329.35 -22.58 333.39 -22.58H335.00Q338.39 -22.58 340.48 -25.08Q342.58 -27.58 342.58 -33.06Q342.58 -35.32 342.10 -38.79Q341.61 -42.26 340.81 -47.26L339.35 -55.48L356.94 -58.39L358.23 -50.16Q359.03 -45.48 359.35 -41.37Q359.68 -37.26 359.68 -33.06Q359.68 -15.00 353.47 -6.53Q347.26 1.94 334.19 1.94Q322.74 1.94 316.94 -3.55Q311.13 -9.03 309.03 -20.48H308.06Q306.77 -8.87 302.34 -3.47Q297.90 1.94 290.65 1.94Q285.97 1.94 281.37 0.24Q276.77 -1.45 269.35 -5.81L265.97 -7.74Q260.97 -2.90 254.60 -1.45Q248.23 0.00 238.55 0.00Z"/>
  <rect x="-55.73" y="-15.29" width="18.05" height="54.00"/>
</svg>
