<svg xmlns="http://www.w3.org/2000/svg" viewBox="-299.18 -141.00 764.14 182.00" fill="#0B0E12">
  <g transform="translate(-280.72,-36.96) scale(1.3367)"><path d="M154.19 1.94Q142.74 1.94 136.94 -3.55Q131.13 -9.03 129.03 -20.48H128.06Q126.77 -9.84 121.61 -4.92Q116.45 0.00 108.23 0.00H102.42Q100.65 20.16 89.27 29.52Q77.90 38.87 55.81 38.87Q30.97 38.87 18.31 27.26Q5.65 15.65 5.65 -5.32Q5.65 -12.10 7.66 -20.00Q9.68 -27.90 13.23 -36.13L28.71 -31.61Q25.48 -25.00 23.63 -19.11Q21.77 -13.23 21.77 -8.55Q21.77 1.45 29.03 7.10Q36.29 12.74 49.35 12.74H62.26Q74.35 12.74 80.00 7.66Q85.65 2.58 85.65 -8.39Q85.65 -12.10 84.84 -17.10Q84.03 -22.10 82.90 -27.26L79.68 -42.26L97.10 -45.65L100.16 -30.81L101.29 -24.19H114.03Q121.29 -24.19 124.11 -26.69Q126.94 -29.19 126.94 -35.48V-45.65H144.68V-35.48Q144.68 -28.71 147.02 -25.65Q149.35 -22.58 153.39 -22.58H155.00Q158.39 -22.58 160.48 -25.08Q162.58 -27.58 162.58 -33.06Q162.58 -35.32 162.10 -38.79Q161.61 -42.26 160.81 -47.26L159.35 -55.48L176.94 -58.39L178.23 -50.16Q179.03 -45.48 179.35 -41.37Q179.68 -37.26 179.68 -33.06Q179.68 -15.00 173.47 -6.53Q167.26 1.94 154.19 1.94Z"/></g>
  <path d="M43.41 1.72Q30.37 1.72 21.13 -2.87Q11.89 -7.45 5.44 -14.47L19.77 -28.94Q24.79 -23.21 31.16 -20.34Q37.54 -17.48 44.84 -17.48Q52.87 -17.48 56.73 -20.77Q60.60 -24.07 60.60 -29.51Q60.60 -32.23 59.67 -34.46Q58.74 -36.68 56.23 -38.18Q53.72 -39.68 49.00 -40.26L39.11 -41.55Q28.65 -42.98 21.85 -46.78Q15.04 -50.57 11.75 -56.81Q8.45 -63.04 8.45 -71.35Q8.45 -80.37 12.97 -87.18Q17.48 -93.98 25.86 -97.85Q34.24 -101.72 45.99 -101.72Q57.31 -101.72 65.90 -98.07Q74.50 -94.41 80.66 -87.68L66.19 -73.07Q62.61 -77.22 57.52 -79.87Q52.44 -82.52 44.70 -82.52Q37.39 -82.52 33.81 -79.94Q30.23 -77.36 30.23 -72.78Q30.23 -69.34 31.45 -67.19Q32.66 -65.04 35.32 -63.90Q37.97 -62.75 42.12 -62.03L52.01 -60.46Q62.32 -58.88 69.05 -55.16Q75.79 -51.43 79.08 -45.42Q82.38 -39.40 82.38 -30.80Q82.38 -21.20 77.87 -13.90Q73.35 -6.59 64.61 -2.44Q55.87 1.72 43.41 1.72ZM184.67 0.00H162.03L154.87 -23.78H121.49L114.33 0.00H92.26L125.21 -100.00H152.15ZM149.57 -42.26 143.41 -63.04 138.40 -80.23H137.68L132.81 -63.04L126.65 -42.26ZM258.02 -80.66H230.95V0.00H209.17V-80.66H182.09V-100.00H258.02ZM340.97 0.00H272.92V-100.00H340.97V-80.66H294.70V-60.17H334.38V-40.97H294.70V-19.34H340.97ZM381.66 -36.68V0.00H359.89V-100.00H407.31Q416.62 -100.00 423.35 -95.99Q430.09 -91.98 433.81 -84.81Q437.54 -77.65 437.54 -68.05Q437.54 -58.02 433.02 -50.36Q428.51 -42.69 419.34 -39.26L438.97 0.00H414.76L397.28 -36.68ZM381.66 -55.01H404.58Q407.88 -55.01 410.17 -56.16Q412.46 -57.31 413.75 -59.53Q415.04 -61.75 415.04 -64.90V-71.20Q415.04 -74.50 413.75 -76.65Q412.46 -78.80 410.17 -79.94Q407.88 -81.09 404.58 -81.09H381.66Z"/>
</svg>
